<mxfile>
    <diagram id="3xMkjkjNEP_ZkLIe8rQM" name="Page-1">
        <mxGraphModel dx="1443" dy="538" grid="1" gridSize="10" guides="1" tooltips="1" connect="1" arrows="1" fold="1" page="1" pageScale="1" pageWidth="850" pageHeight="1100" math="0" shadow="0">
            <root>
                <mxCell id="0"/>
                <mxCell id="1" parent="0"/>
                <mxCell id="5" value="Users&lt;br&gt;&lt;div style=&quot;text-align: left&quot;&gt;&lt;span&gt;1) email&lt;/span&gt;&lt;/div&gt;&lt;div style=&quot;text-align: left&quot;&gt;&lt;span&gt;2) password&lt;/span&gt;&lt;/div&gt;&lt;div style=&quot;text-align: left&quot;&gt;&lt;span&gt;3) refresh_tokens[{token, expiry time, is_revoked}]&lt;/span&gt;&lt;/div&gt;" style="rounded=0;whiteSpace=wrap;html=1;" vertex="1" parent="1">
                    <mxGeometry x="-440" y="330" width="300" height="130" as="geometry"/>
                </mxCell>
                <mxCell id="6" value="Applications&lt;br&gt;&lt;div style=&quot;text-align: left&quot;&gt;&lt;span&gt;1) client_id&lt;/span&gt;&lt;/div&gt;&lt;div style=&quot;text-align: left&quot;&gt;&lt;span&gt;2) client_secret&lt;/span&gt;&lt;/div&gt;" style="rounded=0;whiteSpace=wrap;html=1;" vertex="1" parent="1">
                    <mxGeometry x="-440" y="510" width="120" height="80" as="geometry"/>
                </mxCell>
                <mxCell id="8" value="AuthorizationCodes&lt;br&gt;&lt;div style=&quot;text-align: left&quot;&gt;&lt;span&gt;1) email&lt;/span&gt;&lt;/div&gt;&lt;div style=&quot;text-align: left&quot;&gt;&lt;span&gt;2) auth_code&lt;/span&gt;&lt;/div&gt;&lt;div style=&quot;text-align: left&quot;&gt;&lt;span&gt;3) expiry_datetime&lt;/span&gt;&lt;/div&gt;&lt;div style=&quot;text-align: left&quot;&gt;&lt;span&gt;4) is_revoked&lt;/span&gt;&lt;/div&gt;" style="rounded=0;whiteSpace=wrap;html=1;" vertex="1" parent="1">
                    <mxGeometry x="-250" y="515" width="150" height="95" as="geometry"/>
                </mxCell>
            </root>
        </mxGraphModel>
    </diagram>
</mxfile>